<?xml version="1.0" encoding="utf-8"?>
<!-- Generator: Adobe Illustrator 26.0.0, SVG Export Plug-In . SVG Version: 6.00 Build 0)  -->
<svg version="1.0" id="Layer_1" xmlns="http://www.w3.org/2000/svg" xmlns:xlink="http://www.w3.org/1999/xlink" x="0px" y="0px"
	 viewBox="0 0 517.61 425.2" style="enable-background:new 0 0 517.61 425.2;" xml:space="preserve">
<style type="text/css">
	.st0{fill:#d9b258;}
	.st1{fill:#212554;}
</style>
<g>
	<path class="st0" d="M138.41,305.39c-5.88,4.06-13,6.44-20.69,6.44c-20.13,0-36.45-16.32-36.45-36.45
		c0-20.1,16.32-36.41,36.45-36.41c6.6,0,12.75,1.75,18.1,4.84c-5.69,8.25-9,18.25-9,29.04C126.81,285.2,131.16,296.55,138.41,305.39
		z"/>
	<path class="st0" d="M271.44,275.38c0,20.13-16.32,36.45-36.45,36.45c-6.66,0-12.88-1.78-18.22-4.91
		c8.03-9.06,12.91-20.97,12.91-34.07c0-11.41-3.72-21.94-10.03-30.48c4.66-2.19,9.85-3.41,15.35-3.41
		C255.13,238.97,271.44,255.29,271.44,275.38z"/>
	<circle class="st1" cx="177.72" cy="272.08" r="44.58"/>
	<path class="st0" d="M89.86,309.05c-5.2,3.4-15.07,10.9-21.77,24.15c-3.92,7.76-5.47,14.95-6.12,20.07
		c3.49,4.73,8.57,10.63,15.65,16.33c8.48,6.82,16.73,10.86,22.79,13.27c0.31-7.81,1.92-22.08,10.2-37.42
		c10.38-19.22,25.39-29.28,32.31-33.33c-5.04,2.4-18.72,8.06-35.37,4.42C99.81,314.84,93.85,311.67,89.86,309.05z"/>
	<path class="st0" d="M213.19,311.36c6.63,2.62,12.47,3.65,16.6,4.08c3.81,0.4,10.13,1,18.06-0.78c6.52-1.47,11.51-3.97,14.72-5.88
		c4.88,2.38,13.35,7.31,20.82,16.6c6.38,7.94,9.41,15.8,10.88,20.75c-6.32,4.76-14.02,9.86-23.13,14.63
		c-6.76,3.54-13.19,6.31-19.05,8.5c-0.05-3.35-0.4-7.86-1.61-13.03c0,0-2.04-8.69-6.78-16.97
		C234.4,322.97,217.25,313.51,213.19,311.36z"/>
	<path class="st1" d="M71.9,303c-4.23-13.46-9.63-36.86-5.56-65.1c4.4-30.61,17.68-51.37,25.04-62.87
		c46.51-72.74,172.79-128.6,184.17-133.54c-42.36,12.75-114.43,41.54-172.48,107.39c-22.18,25.15-50.5,58.15-57.87,109.05
		c-4.73,32.72,1.01,60.27,6.12,77.34c1.68-5.5,4.69-13.06,10.31-20.85C65.09,309.59,68.72,305.84,71.9,303z"/>
	<path class="st0" d="M104.73,221.21c2.51,2.31,30.63-35.33,81.79-60.65c28.96-14.33,53.7-18.98,63.99-20.59
		c21.62-3.39,40.12-2.9,53.41-1.67c-11.68,7.98-23.37,15.95-35.05,23.93c9.64,11.54,19.23,19.16,26.15,23.93
		c16.1,11.08,24.86,11.63,27.82,11.68c5.65,0.11,10.3-1.14,13.35-2.23c6.49-12.06,12.98-24.11,19.47-36.17
		c3.56,1.63,16.87,8.24,23.93,23.93c0,0,5.39,11.9,3.34,28.38c-3.19,25.6-33,64.72-81.23,102.93c2.78,7.05,5.56,14.1,8.35,21.14
		c25.35-16.77,44.87-33.66,58.98-47.29c35.36-34.16,54.51-65,72.89-94.59c9.81-15.8,18.78-31.85,25.04-53.41
		c8.53-29.4,5.01-44.82,2.23-52.86c-2.75-7.95-6.58-13.93-9.46-17.8c3.71-4.02,9.15-11.05,12.24-21.14c1.4-4.58,2-8.76,2.23-12.24
		c-6.03-1.06-16.77-2.14-29.49,1.11c-11.47,2.93-19.73,8.15-24.48,11.68c-27.4-2.73-49.6-1.24-64.54,0.56
		C231.4,64.79,155.06,155.82,123.09,193.94C109.1,210.63,103.52,220.1,104.73,221.21z"/>
	<path class="st1" d="M107.45,386.03c-0.55-7.31-0.41-18.73,4.11-31.51c8.68-24.52,27.49-37.15,34.03-41.13
		c2.52,2.8,7.45,7.49,15.1,10.5c8.29,3.26,15.36,2.8,18.69,2.55c1.76-0.13,9.28-0.72,17.81-5.14c4.91-2.54,8.55-5.39,10.96-7.54
		c6,2.81,21.89,11.22,31.85,29.8c6,11.2,7.5,21.7,7.88,28.09c-16.8,6.57-40.47,13.84-69.53,16.78
		C149.57,391.35,125.14,389.04,107.45,386.03z"/>
</g>
</svg>
